# xmcd
#
# Track frame offsets:
# 150
# 12191
# 18074
# 25883
# 36104
# 50231
# 62079
# 71928
# 94835
# 101543
# 110942
# 128683
# 142824
# 160914
#
# Disc length: 2325 seconds
#
# Revision: 0
# Processed by: cddbd v1.4PL0 Copyright (c) Steve Scherf et al.
# Submitted via: Audion 3.0.2 (http://www.panic.com/audion/)
#
DISCID=bd09130e
DTITLE=Little Wings - Bigfoot
DYEAR=1900
DGENRE=
TTITLE0=Song for Sasquatch
TTITLE1=Yar O
TTITLE2=The Double
TTITLE3=I'm Feeling Tough
TTITLE4=Land or Water?
TTITLE5=Hawks and Doves
TTITLE6=I Will Walk Invisibly
TTITLE7=Dove, My Dove
TTITLE8=My Thorny Crown
TTITLE9=I'm Dirty Now
TTITLE10=Thousand Oaks
TTITLE11=Welcome to California
TTITLE12=Hunter Yo
TTITLE13=Wonderue I
EXTD=
EXTT0=
EXTT1=
EXTT2=
EXTT3=
EXTT4=
EXTT5=
EXTT6=
EXTT7=
EXTT8=
EXTT9=
EXTT10=
EXTT11=
EXTT12=
EXTT13=
PLAYORDER=
